<svg xmlns="http://www.w3.org/2000/svg" viewBox="0 0 200 200" fill="none">
  <!-- Robot/Agente central -->
  <!-- Cabeza -->
  <rect x="68" y="60" width="64" height="52" rx="12"
        stroke="currentColor" stroke-width="1.5"/>
  <!-- Ojos -->
  <circle cx="88" cy="82" r="6" stroke="currentColor" stroke-width="1.5"/>
  <circle cx="112" cy="82" r="6" stroke="currentColor" stroke-width="1.5"/>
  <!-- Pupilas (puntos) -->
  <circle cx="89" cy="82" r="2" stroke="currentColor" stroke-width="1.5"/>
  <circle cx="113" cy="82" r="2" stroke="currentColor" stroke-width="1.5"/>
  <!-- Boca -->
  <path d="M86 98 Q100 106 114 98" stroke="currentColor" stroke-width="1.5" stroke-linecap="round" fill="none"/>
  <!-- Antena -->
  <line x1="100" y1="60" x2="100" y2="48" stroke="currentColor" stroke-width="1.5" stroke-linecap="round"/>
  <circle cx="100" cy="44" r="4" stroke="currentColor" stroke-width="1.5"/>
  <!-- Cuello -->
  <rect x="90" y="112" width="20" height="10" rx="2"
        stroke="currentColor" stroke-width="1.5"/>
  <!-- Cuerpo -->
  <rect x="64" y="122" width="72" height="44" rx="10"
        stroke="currentColor" stroke-width="1.5"/>
  <!-- Botón pecho -->
  <circle cx="100" cy="144" r="6" stroke="currentColor" stroke-width="1.5"/>
  <!-- Brazos -->
  <path d="M64 132 L48 132 Q42 132 42 138 L42 150 Q42 156 48 156 L64 156"
        stroke="currentColor" stroke-width="1.5" stroke-linecap="round"/>
  <path d="M136 132 L152 132 Q158 132 158 138 L158 150 Q158 156 152 156 L136 156"
        stroke="currentColor" stroke-width="1.5" stroke-linecap="round"/>
  <!-- Señal wifi arriba derecha -->
  <path d="M146 46 Q152 40 158 46" stroke="currentColor" stroke-width="1.5" stroke-linecap="round" opacity="0.5"/>
  <path d="M149 49 Q152 46 155 49" stroke="currentColor" stroke-width="1.5" stroke-linecap="round" opacity="0.5"/>
  <circle cx="152" cy="52" r="1.5" stroke="currentColor" stroke-width="1.5"/>
</svg>
